<svg xmlns="http://www.w3.org/2000/svg" width="228.874" height="215.902" viewBox="0 0 228.874 215.902">
  <g id="グループ_83" data-name="グループ 83" transform="translate(-148.681 -168.204)">
    <g id="レイヤー_8" data-name="レイヤー 8" transform="translate(148.681 168.204)">
      <g id="グループ_80" data-name="グループ 80" transform="translate(2.099 2.098)">
        <g id="グループ_79" data-name="グループ 79">
          <path id="パス_143" data-name="パス 143" d="M238.573,172.783c0-2.021-1.345-3.075-3-2.353l-81.89,35.664a5.754,5.754,0,0,0-3,4.968l.1,169.742,87.892-38.278ZM190.79,339.638c-10.545,4.593-22.939,4.969-31.239-5.534l12.355-21.646c5.444,5.9,11.876,7.564,18.159,4.827,9.674-4.212,14.641-11.53,14.631-27.407l-.03-52.424-37.135,16.172-.013-22,58.694-25.561.045,76.569C226.27,305.365,217.1,328.181,190.79,339.638Z" transform="translate(-150.681 -170.203)" fill="#f70d0d"/>
        </g>
      </g>
      <path id="パス_144" data-name="パス 144" d="M148.783,384.106l-.1-172.944a7.806,7.806,0,0,1,4.261-6.894L234.83,168.6a4.144,4.144,0,0,1,3.989.229,4.684,4.684,0,0,1,1.953,4.048l.1,171.12Zm87.741-211.659-.017.006-81.89,35.664a3.712,3.712,0,0,0-1.739,3.043l.1,166.54,83.7-36.45-.1-168.366A1.671,1.671,0,0,0,236.524,172.447Z" transform="translate(-148.681 -168.204)" fill="#f70d0d"/>
      <path id="パス_145" data-name="パス 145" d="M255.808,327.718l-19.277,8.4H341.542v-8.4Z" transform="translate(-144.339 -160.32)" fill="#f70d0d"/>
      <path id="パス_146" data-name="パス 146" d="M352.444,336.113l19.277-8.4H266.71v8.4Z" transform="translate(-142.848 -160.32)" fill="#f70d0d"/>
    </g>
    <g id="レイヤー_9" data-name="レイヤー 9" transform="translate(253.455 254.87)">
      <g id="グループ_81" data-name="グループ 81" transform="translate(0)">
        <path id="パス_148" data-name="パス 148" d="M263.208,236.915l6.675-29.888h3.567l6.674,29.888h-4.282l-1.259-6.422H268.75l-1.26,6.422Zm10.578-10.452-2.1-10.83H271.6l-2.1,10.83Z" transform="translate(-263.208 -207.027)" fill="#f70d0d"/>
        <path id="パス_149" data-name="パス 149" d="M285.768,236.915V207.027h6.422a9.555,9.555,0,0,1,3.106.462,5.974,5.974,0,0,1,2.435,1.637,6.411,6.411,0,0,1,1.511,2.75,17.242,17.242,0,0,1,.42,4.262,21.227,21.227,0,0,1-.231,3.4,7.108,7.108,0,0,1-.986,2.6,6.247,6.247,0,0,1-2.351,2.288,7.9,7.9,0,0,1-3.862.819H290.05v11.67Zm4.282-25.857v10.157h2.057a4.379,4.379,0,0,0,2.015-.378,2.376,2.376,0,0,0,1.049-1.049,3.835,3.835,0,0,0,.4-1.552q.063-.924.063-2.057,0-1.048-.042-1.995a4.334,4.334,0,0,0-.378-1.658,2.388,2.388,0,0,0-1.007-1.091,4.014,4.014,0,0,0-1.931-.377Z" transform="translate(-264.043 -207.027)" fill="#f70d0d"/>
        <path id="パス_150" data-name="パス 150" d="M303.169,236.915l6.675-29.888h3.567l6.674,29.888H315.8l-1.259-6.422h-5.834l-1.26,6.422Zm10.578-10.452-2.1-10.83h-.084l-2.1,10.83Z" transform="translate(-262.742 -207.027)" fill="#f70d0d"/>
        <path id="パス_151" data-name="パス 151" d="M325.569,236.915V207.027h4.114l6.464,18.008h.084V207.027h4.282v29.888h-4.03l-6.548-17.966h-.084v17.966Z" transform="translate(-263.418 -207.027)" fill="#f70d0d"/>
        <path id="パス_152" data-name="パス 152" d="M247.288,275.915V246.027h6.422a9.554,9.554,0,0,1,3.106.462,5.974,5.974,0,0,1,2.435,1.637,6.411,6.411,0,0,1,1.511,2.75,17.24,17.24,0,0,1,.42,4.262,21.227,21.227,0,0,1-.231,3.4,7.09,7.09,0,0,1-.986,2.6,6.246,6.246,0,0,1-2.351,2.288,7.9,7.9,0,0,1-3.862.819H251.57v11.67Zm4.282-25.857v10.157h2.057a4.381,4.381,0,0,0,2.015-.378,2.376,2.376,0,0,0,1.049-1.049,3.833,3.833,0,0,0,.4-1.552q.063-.924.063-2.057,0-1.048-.042-1.995a4.333,4.333,0,0,0-.378-1.658,2.387,2.387,0,0,0-1.007-1.091,4.014,4.014,0,0,0-1.931-.377Z" transform="translate(-247.288 -205.099)" fill="#f70d0d"/>
        <path id="パス_153" data-name="パス 153" d="M267.769,253.092a7.616,7.616,0,0,1,.631-3.19,6.729,6.729,0,0,1,1.678-2.31,7.122,7.122,0,0,1,2.288-1.343,7.466,7.466,0,0,1,5.164,0,7.66,7.66,0,0,1,2.329,1.343,7.022,7.022,0,0,1,1.637,2.31,7.632,7.632,0,0,1,.631,3.19v15.783a7.569,7.569,0,0,1-.631,3.232,6.669,6.669,0,0,1-1.637,2.225,7.215,7.215,0,0,1-2.329,1.384,7.435,7.435,0,0,1-5.164,0,6.731,6.731,0,0,1-2.288-1.384,6.4,6.4,0,0,1-1.678-2.225,7.554,7.554,0,0,1-.631-3.232Zm4.282,15.783a2.841,2.841,0,0,0,.861,2.287,3.185,3.185,0,0,0,4.072,0,2.845,2.845,0,0,0,.862-2.287V253.092a2.852,2.852,0,0,0-.862-2.289,3.192,3.192,0,0,0-4.072,0,2.849,2.849,0,0,0-.861,2.289Z" transform="translate(-246.276 -205.111)" fill="#f70d0d"/>
        <path id="パス_154" data-name="パス 154" d="M289.489,275.915V246.027h6.884q7.556,0,7.555,8.773a11.061,11.061,0,0,1-.818,4.493,6.345,6.345,0,0,1-2.875,2.979l4.616,13.642h-4.532l-3.988-12.761h-2.561v12.761Zm4.282-25.857v9.319h2.435a4.326,4.326,0,0,0,1.805-.315,2.455,2.455,0,0,0,1.049-.9,4.108,4.108,0,0,0,.462-1.447,15.977,15.977,0,0,0,0-3.988,3.982,3.982,0,0,0-.5-1.49A3.406,3.406,0,0,0,296,250.058Z" transform="translate(-245.202 -205.099)" fill="#f70d0d"/>
        <path id="パス_155" data-name="パス 155" d="M313.162,275.915V250.058h-4.953v-4.031H322.4v4.031h-4.954v25.857Z" transform="translate(-244.277 -205.099)" fill="#f70d0d"/>
        <path id="パス_156" data-name="パス 156" d="M323.929,275.915l6.674-29.888h3.568l6.674,29.888h-4.282l-1.259-6.422H329.47l-1.259,6.422Zm10.578-10.452-2.1-10.83h-.084l-2.1,10.83Z" transform="translate(-243.5 -205.099)" fill="#f70d0d"/>
        <path id="パス_157" data-name="パス 157" d="M346.49,275.915V246.027h4.282v25.606h8.479v4.282Z" transform="translate(-242.385 -205.099)" fill="#f70d0d"/>
      </g>
    </g>
    <g id="レイヤー_10" data-name="レイヤー 10" transform="translate(181.349 351.82)">
      <g id="グループ_82" data-name="グループ 82" transform="translate(70.357 5.461)">
        <path id="パス_158" data-name="パス 158" d="M308.756,318.332v-8.08h-.946v-1.514h.946v-1.306a2.968,2.968,0,0,1,.208-1.182,2.253,2.253,0,0,1,.566-.8,1.923,1.923,0,0,1,.786-.454,3.2,3.2,0,0,1,.918-.133h.889v1.816h-.871c-.379,0-.567.221-.567.663v1.4h1.437v1.514h-1.437v8.08Z" transform="translate(-307.81 -304.859)" fill="#2d3c7c"/>
        <path id="パス_159" data-name="パス 159" d="M311.944,311.48a7.132,7.132,0,0,1,.076-1.079,2.568,2.568,0,0,1,1.258-1.873,3.339,3.339,0,0,1,3.085,0,2.567,2.567,0,0,1,1.258,1.873,7.133,7.133,0,0,1,.077,1.079v3.16a7.133,7.133,0,0,1-.077,1.079,2.563,2.563,0,0,1-1.258,1.872,3.331,3.331,0,0,1-3.085,0,2.564,2.564,0,0,1-1.258-1.872,7.132,7.132,0,0,1-.076-1.079Zm1.931,3.463a1.175,1.175,0,0,0,.254.823,1.006,1.006,0,0,0,1.381,0,1.17,1.17,0,0,0,.256-.823v-3.765a1.171,1.171,0,0,0-.256-.824,1.006,1.006,0,0,0-1.381,0,1.176,1.176,0,0,0-.254.824Z" transform="translate(-307.213 -304.384)" fill="#2d3c7c"/>
        <path id="パス_160" data-name="パス 160" d="M318.21,317.857v-9.594h1.931v1.022a5.9,5.9,0,0,1,1.154-.833,2.959,2.959,0,0,1,1.4-.3v2.044a1.567,1.567,0,0,0-.586-.114,2.291,2.291,0,0,0-.654.1,1.715,1.715,0,0,0-.634.35,1.829,1.829,0,0,0-.492.644,2.278,2.278,0,0,0-.189.983v5.7Z" transform="translate(-306.308 -304.384)" fill="#2d3c7c"/>
      </g>
      <path id="パス_161" data-name="パス 161" d="M325.73,300.087V324.6H365.4V300.087Zm13.732,15.468c0,2.672-1.286,4.237-3.619,4.237s-3.62-1.564-3.62-4.237V305.163h2.649v10.226c0,.605.093,1.482.97,1.482s.969-.877.969-1.482V305.163h2.649Zm9.893-7.471h-4.422v2.755h3.975v2.922h-3.975v5.76H342.19V305.163h7.164Zm9.555,2.422h-2.593v-.961c0-.605-.056-1.774-1.063-1.774s-1.063,1.168-1.063,1.774v5.593c0,.605.055,1.774,1.063,1.774s1.063-1.168,1.063-1.774v-.959h2.593v1.377c0,2.485-1.324,4.237-3.656,4.237s-3.656-1.752-3.656-4.237v-6.427c0-2.483,1.324-4.238,3.656-4.238s3.656,1.754,3.656,4.238Z" transform="translate(-234.865 -300.087)" fill="#2d3c7c"/>
    </g>
  </g>
</svg>
