<svg xmlns="http://www.w3.org/2000/svg" width="392.229" height="77.93" viewBox="0 0 392.229 77.93">
  <g id="グループ_370" data-name="グループ 370" transform="translate(-70 -11.035)">
    <g id="グループ_78" data-name="グループ 78" transform="translate(-78.681 -157.169)">
      <g id="レイヤー_8" data-name="レイヤー 8" transform="translate(148.681 168.204)">
        <g id="グループ_75" data-name="グループ 75" transform="translate(0.758 0.757)">
          <g id="グループ_74" data-name="グループ 74">
            <path id="パス_124" data-name="パス 124" d="M182.406,171.135c0-.73-.486-1.11-1.084-.849l-29.558,12.873a2.077,2.077,0,0,0-1.083,1.793l.036,61.269L182.442,232.4Zm-17.247,60.226c-3.806,1.658-8.28,1.794-11.276-2l4.46-7.813c1.965,2.128,4.287,2.73,6.555,1.742,3.492-1.52,5.285-4.162,5.281-9.893l-.011-18.923-13.4,5.837,0-7.941,21.186-9.226.016,27.638C177.965,218.99,174.655,227.226,165.158,231.361Z" transform="translate(-150.681 -170.203)" fill="#fff"/>
          </g>
        </g>
        <path id="パス_125" data-name="パス 125" d="M148.718,246.134l-.037-62.424a2.817,2.817,0,0,1,1.538-2.488l29.558-12.873a1.5,1.5,0,0,1,1.44.083,1.691,1.691,0,0,1,.7,1.461l.036,61.766Zm31.67-76.4-.006,0-29.558,12.873a1.34,1.34,0,0,0-.628,1.1l.035,60.113,30.211-13.157-.036-60.772A.6.6,0,0,0,180.388,169.735Z" transform="translate(-148.681 -168.204)" fill="#fff"/>
        <path id="パス_126" data-name="パス 126" d="M243.489,327.718l-6.958,3.03h37.9v-3.03Z" transform="translate(-203.254 -267.295)" fill="#fff"/>
        <path id="パス_127" data-name="パス 127" d="M297.656,330.748l6.958-3.03h-37.9v3.03Z" transform="translate(-222.002 -267.295)" fill="#fff"/>
      </g>
      <g id="レイヤー_10" data-name="レイヤー 10" transform="translate(311.671 185.607)">
        <g id="グループ_77" data-name="グループ 77" transform="translate(117.684 9.135)">
          <path id="パス_139" data-name="パス 139" d="M309.393,327.4V313.881H307.81v-2.532h1.583v-2.184a4.964,4.964,0,0,1,.349-1.977,3.768,3.768,0,0,1,.947-1.346,3.219,3.219,0,0,1,1.315-.76,5.348,5.348,0,0,1,1.535-.222h1.487V307.9H313.57c-.634,0-.948.369-.948,1.108v2.343h2.4v2.532h-2.4V327.4Z" transform="translate(-307.81 -304.859)" fill="#fff"/>
          <path id="パス_140" data-name="パス 140" d="M311.944,313.72a11.934,11.934,0,0,1,.127-1.805,4.294,4.294,0,0,1,2.1-3.134,5.586,5.586,0,0,1,5.161,0,4.294,4.294,0,0,1,2.1,3.134,11.938,11.938,0,0,1,.128,1.805v5.285a11.94,11.94,0,0,1-.128,1.805,4.288,4.288,0,0,1-2.1,3.132,5.573,5.573,0,0,1-5.161,0,4.288,4.288,0,0,1-2.1-3.132,11.936,11.936,0,0,1-.127-1.805Zm3.229,5.793a1.966,1.966,0,0,0,.425,1.376,1.683,1.683,0,0,0,2.31,0,1.957,1.957,0,0,0,.429-1.376v-6.3a1.958,1.958,0,0,0-.429-1.378,1.682,1.682,0,0,0-2.31,0,1.967,1.967,0,0,0-.425,1.378Z" transform="translate(-304.03 -301.85)" fill="#fff"/>
          <path id="パス_141" data-name="パス 141" d="M318.21,324.387V308.34h3.229v1.709a9.874,9.874,0,0,1,1.929-1.393,4.949,4.949,0,0,1,2.343-.505v3.419a2.617,2.617,0,0,0-.98-.192,3.832,3.832,0,0,0-1.093.174,2.874,2.874,0,0,0-1.061.586,3.062,3.062,0,0,0-.823,1.078,3.806,3.806,0,0,0-.316,1.644v9.527Z" transform="translate(-298.302 -301.85)" fill="#fff"/>
        </g>
        <path id="パス_142" data-name="パス 142" d="M325.73,300.087v45.251h73.251V300.087Zm25.355,28.56c0,4.934-2.375,7.823-6.682,7.823s-6.683-2.889-6.683-7.823V309.458h4.892v18.88c0,1.118.171,2.736,1.792,2.736s1.79-1.619,1.79-2.736v-18.88h4.891Zm18.265-13.794h-8.165v5.086h7.338v5.395h-7.338v10.635h-5.063v-26.51H369.35Zm17.642,4.471H382.2v-1.775c0-1.118-.1-3.275-1.963-3.275s-1.963,2.158-1.963,3.275v10.326c0,1.118.1,3.276,1.963,3.276s1.963-2.157,1.963-3.276V326.1h4.788v2.542c0,4.587-2.445,7.823-6.751,7.823s-6.751-3.235-6.751-7.823V316.78c0-4.585,2.445-7.825,6.751-7.825s6.751,3.239,6.751,7.825Z" transform="translate(-169.742 -302.215)" fill="#fff"/>
      </g>
    </g>
    <text id="APAN_PORTAL" data-name="APAN PORTAL" transform="translate(111.337 28)" fill="#fff" font-size="50" font-family="DINCondensed-Bold, DIN Condensed" font-weight="700" letter-spacing="0.05em"><tspan x="0" y="36">APAN PORTAL</tspan></text>
  </g>
</svg>
