<svg xmlns="http://www.w3.org/2000/svg" width="392.229" height="77.93" viewBox="0 0 392.229 77.93">
  <g id="グループ_370" data-name="グループ 370" transform="translate(-70 -11.035)">
    <g id="グループ_78" data-name="グループ 78" transform="translate(-78.681 -157.169)">
      <g id="レイヤー_8" data-name="レイヤー 8" transform="translate(148.681 168.204)">
        <g id="グループ_75" data-name="グループ 75" transform="translate(0.758 0.757)">
          <g id="グループ_74" data-name="グループ 74">
            <path id="パス_124" data-name="パス 124" d="M182.406,171.135c0-.73-.486-1.11-1.084-.849l-29.558,12.873a2.077,2.077,0,0,0-1.083,1.793l.036,61.269L182.442,232.4Zm-17.247,60.226c-3.806,1.658-8.28,1.794-11.276-2l4.46-7.813c1.965,2.128,4.287,2.73,6.555,1.742,3.492-1.52,5.285-4.162,5.281-9.893l-.011-18.923-13.4,5.837,0-7.941,21.186-9.226.016,27.638C177.965,218.99,174.655,227.226,165.158,231.361Z" transform="translate(-150.681 -170.203)" fill="#fff"/>
          </g>
        </g>
        <path id="パス_125" data-name="パス 125" d="M148.718,246.134l-.037-62.424a2.817,2.817,0,0,1,1.538-2.488l29.558-12.873a1.5,1.5,0,0,1,1.44.083,1.691,1.691,0,0,1,.7,1.461l.036,61.766Zm31.67-76.4-.006,0-29.558,12.873a1.34,1.34,0,0,0-.628,1.1l.035,60.113,30.211-13.157-.036-60.772A.6.6,0,0,0,180.388,169.735Z" transform="translate(-148.681 -168.204)" fill="#fff"/>
        <path id="パス_126" data-name="パス 126" d="M243.489,327.718l-6.958,3.03h37.9v-3.03Z" transform="translate(-203.254 -267.295)" fill="#fff"/>
        <path id="パス_127" data-name="パス 127" d="M297.656,330.748l6.958-3.03h-37.9v3.03Z" transform="translate(-222.002 -267.295)" fill="#fff"/>
      </g>
      <g id="レイヤー_10" data-name="レイヤー 10" transform="translate(311.671 185.607)">
        <g id="グループ_77" data-name="グループ 77" transform="translate(117.684 9.135)">
          <path id="パス_139" data-name="パス 139" d="M309.393,327.4V313.881H307.81v-2.532h1.583v-2.184a4.964,4.964,0,0,1,.349-1.977,3.768,3.768,0,0,1,.947-1.346,3.219,3.219,0,0,1,1.315-.76,5.348,5.348,0,0,1,1.535-.222h1.487V307.9H313.57c-.634,0-.948.369-.948,1.108v2.343h2.4v2.532h-2.4V327.4Z" transform="translate(-307.81 -304.859)" fill="#fff"/>
          <path id="パス_140" data-name="パス 140" d="M311.944,313.72a11.934,11.934,0,0,1,.127-1.805,4.294,4.294,0,0,1,2.1-3.134,5.586,5.586,0,0,1,5.161,0,4.294,4.294,0,0,1,2.1,3.134,11.938,11.938,0,0,1,.128,1.805v5.285a11.94,11.94,0,0,1-.128,1.805,4.288,4.288,0,0,1-2.1,3.132,5.573,5.573,0,0,1-5.161,0,4.288,4.288,0,0,1-2.1-3.132,11.936,11.936,0,0,1-.127-1.805Zm3.229,5.793a1.966,1.966,0,0,0,.425,1.376,1.683,1.683,0,0,0,2.31,0,1.957,1.957,0,0,0,.429-1.376v-6.3a1.958,1.958,0,0,0-.429-1.378,1.682,1.682,0,0,0-2.31,0,1.967,1.967,0,0,0-.425,1.378Z" transform="translate(-304.03 -301.85)" fill="#fff"/>
          <path id="パス_141" data-name="パス 141" d="M318.21,324.387V308.34h3.229v1.709a9.874,9.874,0,0,1,1.929-1.393,4.949,4.949,0,0,1,2.343-.505v3.419a2.617,2.617,0,0,0-.98-.192,3.832,3.832,0,0,0-1.093.174,2.874,2.874,0,0,0-1.061.586,3.062,3.062,0,0,0-.823,1.078,3.806,3.806,0,0,0-.316,1.644v9.527Z" transform="translate(-298.302 -301.85)" fill="#fff"/>
        </g>
        <path id="パス_142" data-name="パス 142" d="M325.73,300.087v45.251h73.251V300.087Zm25.355,28.56c0,4.934-2.375,7.823-6.682,7.823s-6.683-2.889-6.683-7.823V309.458h4.892v18.88c0,1.118.171,2.736,1.792,2.736s1.79-1.619,1.79-2.736v-18.88h4.891Zm18.265-13.794h-8.165v5.086h7.338v5.395h-7.338v10.635h-5.063v-26.51H369.35Zm17.642,4.471H382.2v-1.775c0-1.118-.1-3.275-1.963-3.275s-1.963,2.158-1.963,3.275v10.326c0,1.118.1,3.276,1.963,3.276s1.963-2.157,1.963-3.276V326.1h4.788v2.542c0,4.587-2.445,7.823-6.751,7.823s-6.751-3.235-6.751-7.823V316.78c0-4.585,2.445-7.825,6.751-7.825s6.751,3.239,6.751,7.825Z" transform="translate(-169.742 -302.215)" fill="#fff"/>
      </g>
    </g>
    <path id="パス_315" data-name="パス 315" d="M12.7,23.55l-2.5-12.9h-.1L7.6,23.55ZM.1,36,8.05.4H12.3L20.25,36h-5.1l-1.5-7.65H6.7L5.2,36Zm25.15,0V.4H32.9a11.372,11.372,0,0,1,3.7.55A7.1,7.1,0,0,1,39.5,2.9a7.625,7.625,0,0,1,1.8,3.275,20.481,20.481,0,0,1,.5,5.075,25.174,25.174,0,0,1-.275,4.05,8.467,8.467,0,0,1-1.175,3.1,7.444,7.444,0,0,1-2.8,2.725,9.423,9.423,0,0,1-4.6.975h-2.6V36Zm5.1-30.8V17.3H32.8a5.212,5.212,0,0,0,2.4-.45,2.832,2.832,0,0,0,1.25-1.25,4.569,4.569,0,0,0,.475-1.85Q37,12.65,37,11.3q0-1.25-.05-2.375A5.138,5.138,0,0,0,36.5,6.95a2.839,2.839,0,0,0-1.2-1.3A4.764,4.764,0,0,0,33,5.2Zm26.2,18.35-2.5-12.9h-.1l-2.5,12.9ZM43.95,36,51.9.4h4.25L64.1,36H59l-1.5-7.65H50.55L49.05,36ZM68.9,36V.4h4.9l7.7,21.45h.1V.4h5.1V36H81.9L74.1,14.6H74V36Zm36.7,0V.4h7.65a11.372,11.372,0,0,1,3.7.55,7.1,7.1,0,0,1,2.9,1.95,7.626,7.626,0,0,1,1.8,3.275,20.481,20.481,0,0,1,.5,5.075,25.175,25.175,0,0,1-.275,4.05,8.468,8.468,0,0,1-1.175,3.1,7.444,7.444,0,0,1-2.8,2.725,9.423,9.423,0,0,1-4.6.975h-2.6V36Zm5.1-30.8V17.3h2.45a5.212,5.212,0,0,0,2.4-.45,2.832,2.832,0,0,0,1.25-1.25,4.569,4.569,0,0,0,.475-1.85q.075-1.1.075-2.45,0-1.25-.05-2.375a5.138,5.138,0,0,0-.45-1.975,2.839,2.839,0,0,0-1.2-1.3,4.764,4.764,0,0,0-2.3-.45Zm17.45,3.6A9.1,9.1,0,0,1,128.9,5a8.03,8.03,0,0,1,2-2.75,8.455,8.455,0,0,1,2.725-1.6,9.076,9.076,0,0,1,8.925,1.6A8.372,8.372,0,0,1,144.5,5a9.1,9.1,0,0,1,.75,3.8V27.6a9.013,9.013,0,0,1-.75,3.85,7.943,7.943,0,0,1-1.95,2.65,8.574,8.574,0,0,1-2.775,1.65,8.871,8.871,0,0,1-6.15,0A8.023,8.023,0,0,1,130.9,34.1a7.634,7.634,0,0,1-2-2.65,9.013,9.013,0,0,1-.75-3.85Zm5.1,18.8a3.39,3.39,0,0,0,1.025,2.725,3.8,3.8,0,0,0,4.85,0A3.39,3.39,0,0,0,140.15,27.6V8.8a3.39,3.39,0,0,0-1.025-2.725,3.8,3.8,0,0,0-4.85,0A3.39,3.39,0,0,0,133.25,8.8Zm24.1-22.4V16.3h2.9a5.132,5.132,0,0,0,2.15-.375,2.922,2.922,0,0,0,1.25-1.075,4.887,4.887,0,0,0,.55-1.725,16.588,16.588,0,0,0,.15-2.375,16.588,16.588,0,0,0-.15-2.375,4.753,4.753,0,0,0-.6-1.775q-.95-1.4-3.6-1.4ZM152.25,36V.4h8.2q9,0,9,10.45a13.169,13.169,0,0,1-.975,5.35,7.561,7.561,0,0,1-3.425,3.55L170.55,36h-5.4L160.4,20.8h-3.05V36Zm26.25,0V5.2h-5.9V.4h16.9V5.2h-5.9V36Zm23.3-12.45-2.5-12.9h-.1l-2.5,12.9ZM189.2,36,197.15.4h4.25L209.35,36h-5.1l-1.5-7.65H195.8L194.3,36Zm25.15,0V.4h5.1V30.9h10.1V36Z" transform="translate(111.337 28)" fill="#fff"/>
  </g>
</svg>
