<svg xmlns="http://www.w3.org/2000/svg" width="44" height="44" viewBox="0 0 44 44">
  <g id="グループ_372" data-name="グループ 372" transform="translate(-927 -280)">
    <rect id="長方形_1156" data-name="長方形 1156" width="44" height="44" transform="translate(927 280)" fill="#3aae36"/>
    <g id="グループ_239" data-name="グループ 239" transform="translate(938 290)">
      <g id="TYPE_A" data-name="TYPE A" transform="translate(0 1)">
        <g id="グループ_92" data-name="グループ 92">
          <path id="パス_188" data-name="パス 188" d="M3990.75,900c0-5.151-5.165-9.342-11.512-9.342s-11.511,4.191-11.511,9.342c0,4.618,4.1,8.485,9.626,9.215.375.081.886.248,1.015.568a2.375,2.375,0,0,1,.037,1.041s-.135.812-.165.985c-.05.291-.231,1.138,1,.621a37.168,37.168,0,0,0,9.044-6.683h0A8.31,8.31,0,0,0,3990.75,900" transform="translate(-3967.728 -890.662)" fill="#fff"/>
          <g id="グループ_91" data-name="グループ 91" transform="translate(3.776 6.852)">
            <path id="パス_189" data-name="パス 189" d="M3982.87,902.541h-.809a.223.223,0,0,0-.222.224v5.016a.223.223,0,0,0,.222.224h.809a.225.225,0,0,0,.225-.224v-5.016a.225.225,0,0,0-.225-.224" transform="translate(-3977.475 -902.541)" fill="#3aae36"/>
            <path id="パス_190" data-name="パス 190" d="M3989.925,902.541h-.807a.224.224,0,0,0-.225.224v2.98l-2.3-3.1-.016-.023h0l-.014-.014,0,0-.012-.01-.006,0-.011-.008-.007,0-.012-.007-.007,0-.013-.005-.008,0-.012,0-.009,0-.012,0-.01,0h-.838a.224.224,0,0,0-.224.224v5.016a.224.224,0,0,0,.224.224h.808a.224.224,0,0,0,.224-.224V904.8l2.3,3.108a.263.263,0,0,0,.057.055l0,0,.015.008.006,0,.01.005.012,0,.006,0,.015,0h0a.221.221,0,0,0,.059.008h.807a.224.224,0,0,0,.224-.224v-5.016a.224.224,0,0,0-.224-.224" transform="translate(-3978.972 -902.541)" fill="#3aae36"/>
            <path id="パス_191" data-name="パス 191" d="M3977.723,906.748h-2.193v-3.983a.225.225,0,0,0-.225-.224h-.807a.224.224,0,0,0-.224.224v5.015h0a.219.219,0,0,0,.063.155l0,0,0,0a.221.221,0,0,0,.154.063h3.226a.225.225,0,0,0,.225-.224v-.808a.225.225,0,0,0-.225-.224" transform="translate(-3974.273 -902.541)" fill="#3aae36"/>
            <path id="パス_192" data-name="パス 192" d="M3998.46,903.8a.224.224,0,0,0,.224-.224v-.807a.224.224,0,0,0-.224-.224h-3.226a.224.224,0,0,0-.155.063l0,0,0,0a.224.224,0,0,0-.062.154h0v5.015h0a.219.219,0,0,0,.063.155l0,0,0,0a.224.224,0,0,0,.155.063h3.226a.224.224,0,0,0,.224-.224v-.808a.224.224,0,0,0-.224-.224h-2.194V905.9h2.194a.224.224,0,0,0,.224-.224v-.807a.224.224,0,0,0-.224-.224h-2.194V903.8Z" transform="translate(-3983.048 -902.541)" fill="#3aae36"/>
          </g>
        </g>
      </g>
    </g>
  </g>
</svg>
