<svg xmlns="http://www.w3.org/2000/svg" width="170" height="44" viewBox="0 0 170 44">
  <g id="グループ_375" data-name="グループ 375" transform="translate(-855 -1663)">
    <g id="メール_" data-name="メール５" transform="translate(967 1686.125)">
      <path id="メール_2" data-name="メール５" d="M17.659,4.458A.211.211,0,0,1,18,4.623v7.189A1.687,1.687,0,0,1,16.313,13.5H1.687A1.687,1.687,0,0,1,0,11.812V4.627a.211.211,0,0,1,.341-.165c.787.612,1.832,1.389,5.418,3.994C6.5,9,7.752,10.136,9,10.129s2.531-1.153,3.245-1.673C15.831,5.85,16.871,5.07,17.659,4.458ZM9,9c.816.014,1.99-1.027,2.58-1.455,4.665-3.386,5.02-3.681,6.1-4.525A.84.84,0,0,0,18,2.355V1.687A1.688,1.688,0,0,0,16.313,0H1.687A1.687,1.687,0,0,0,0,1.688v.668a.847.847,0,0,0,.323.664c1.076.84,1.431,1.139,6.1,4.525C7.01,7.973,8.184,9.014,9,9Z" transform="translate(-10.5 -7.875)" fill="#fff"/>
    </g>
    <rect id="長方形_1161" data-name="長方形 1161" width="170" height="44" transform="translate(855 1663)" fill="#3aae36"/>
    <g id="グループ_241" data-name="グループ 241" transform="translate(928.489 1674.032)">
      <g id="TYPE_A" data-name="TYPE A" transform="translate(0)">
        <g id="グループ_92" data-name="グループ 92">
          <path id="パス_188" data-name="パス 188" d="M3990.75,900c0-5.151-5.165-9.342-11.512-9.342s-11.511,4.191-11.511,9.342c0,4.618,4.1,8.485,9.626,9.215.375.081.886.248,1.015.568a2.375,2.375,0,0,1,.037,1.041s-.135.812-.165.985c-.05.291-.231,1.138,1,.621a37.168,37.168,0,0,0,9.044-6.683h0A8.31,8.31,0,0,0,3990.75,900" transform="translate(-3967.728 -890.662)" fill="#fff"/>
          <g id="グループ_91" data-name="グループ 91" transform="translate(3.776 6.852)">
            <path id="パス_189" data-name="パス 189" d="M3982.87,902.541h-.809a.223.223,0,0,0-.222.224v5.016a.223.223,0,0,0,.222.224h.809a.225.225,0,0,0,.225-.224v-5.016a.225.225,0,0,0-.225-.224" transform="translate(-3977.475 -902.541)" fill="#3aae36"/>
            <path id="パス_190" data-name="パス 190" d="M3989.925,902.541h-.807a.224.224,0,0,0-.225.224v2.98l-2.3-3.1-.016-.023h0l-.014-.014,0,0-.012-.01-.006,0-.011-.008-.007,0-.012-.007-.007,0-.013-.005-.008,0-.012,0-.009,0-.012,0-.01,0h-.838a.224.224,0,0,0-.224.224v5.016a.224.224,0,0,0,.224.224h.808a.224.224,0,0,0,.224-.224V904.8l2.3,3.108a.263.263,0,0,0,.057.055l0,0,.015.008.006,0,.01.005.012,0,.006,0,.015,0h0a.221.221,0,0,0,.059.008h.807a.224.224,0,0,0,.224-.224v-5.016a.224.224,0,0,0-.224-.224" transform="translate(-3978.972 -902.541)" fill="#3aae36"/>
            <path id="パス_191" data-name="パス 191" d="M3977.723,906.748h-2.193v-3.983a.225.225,0,0,0-.225-.224h-.807a.224.224,0,0,0-.224.224v5.015h0a.219.219,0,0,0,.063.155l0,0,0,0a.221.221,0,0,0,.154.063h3.226a.225.225,0,0,0,.225-.224v-.808a.225.225,0,0,0-.225-.224" transform="translate(-3974.273 -902.541)" fill="#3aae36"/>
            <path id="パス_192" data-name="パス 192" d="M3998.46,903.8a.224.224,0,0,0,.224-.224v-.807a.224.224,0,0,0-.224-.224h-3.226a.224.224,0,0,0-.155.063l0,0,0,0a.224.224,0,0,0-.062.154h0v5.015h0a.219.219,0,0,0,.063.155l0,0,0,0a.224.224,0,0,0,.155.063h3.226a.224.224,0,0,0,.224-.224v-.808a.224.224,0,0,0-.224-.224h-2.194V905.9h2.194a.224.224,0,0,0,.224-.224v-.807a.224.224,0,0,0-.224-.224h-2.194V903.8Z" transform="translate(-3983.048 -902.541)" fill="#3aae36"/>
          </g>
        </g>
      </g>
    </g>
  </g>
</svg>
