<svg xmlns="http://www.w3.org/2000/svg" width="44" height="44" viewBox="0 0 44 44">
  <g id="グループ_370" data-name="グループ 370" transform="translate(-809 -280)">
    <rect id="長方形_1152" data-name="長方形 1152" width="44" height="44" transform="translate(809 280)" fill="#209ff3"/>
    <g id="Logo_1_" transform="translate(818.623 291.258)">
      <path id="white_background" d="M21.424,6.1c.014.2.014.4.014.6A13.192,13.192,0,0,1,8.156,19.986v0A13.216,13.216,0,0,1,1,17.89a9.5,9.5,0,0,0,1.111.067,9.374,9.374,0,0,0,5.8-2,4.674,4.674,0,0,1-4.361-3.242,4.653,4.653,0,0,0,2.108-.08A4.669,4.669,0,0,1,1.911,8.057V8a4.639,4.639,0,0,0,2.119.584A4.674,4.674,0,0,1,2.584,2.349a13.249,13.249,0,0,0,9.621,4.877,4.673,4.673,0,0,1,7.955-4.258,9.367,9.367,0,0,0,2.964-1.133,4.686,4.686,0,0,1-2.052,2.582,9.284,9.284,0,0,0,2.681-.735A9.484,9.484,0,0,1,21.424,6.1Z" transform="translate(0 0)" fill="#fff"/>
    </g>
  </g>
</svg>
